<svg id="logotipo" xmlns="http://www.w3.org/2000/svg" xmlns:xlink="http://www.w3.org/1999/xlink" width="184" height="48" viewBox="0 0 184 48">
  <defs>
    <clipPath id="clip-path">
      <rect id="tooth_1_Background_Mask_" data-name="tooth 1 (Background/Mask)" width="48" height="48" fill="none"/>
    </clipPath>
  </defs>
  <g id="tooth_1" data-name="tooth 1">
    <rect id="tooth_1_Background_Mask_2" data-name="tooth 1 (Background/Mask)" width="48" height="48" fill="none"/>
    <g id="tooth_1-2" data-name="tooth 1" clip-path="url(#clip-path)">
      <g id="Group" transform="translate(35.247 4.406)">
        <g id="Group-2" data-name="Group">
          <path id="Vector" d="M0,.937A.937.937,0,1,0,.937,0,.938.938,0,0,0,0,.937Z" fill="#c4c4c4"/>
        </g>
      </g>
      <g id="Group-3" data-name="Group" transform="translate(2.589)">
        <g id="Group-4" data-name="Group">
          <path id="Vector-2" data-name="Vector" d="M29.876,48c-1.494-.035-2.7-1.521-3.908-4.818a38.538,38.538,0,0,1-1.39-5.582c-.684-3.446-1.391-7.011-3.154-7.011h-.009c-1.782.013-2.491,3.576-3.177,7.022a38.683,38.683,0,0,1-1.389,5.571c-1.207,3.291-2.412,4.775-3.908,4.81H12.89c-1.859,0-3.117-2.415-4.006-4.526a28.746,28.746,0,0,1-1.945-8.424c-.418-3.549-.814-6.9-3.772-11.246C-3.077,14.621.574,3.248,8.362.75A16.211,16.211,0,0,1,21.408,2.274,16.213,16.213,0,0,1,34.454.75c7.657,2.455,11.519,13.742,5.2,23.036-2.932,4.314-3.358,7.76-3.809,11.408a29.152,29.152,0,0,1-1.915,8.272C33.041,45.581,31.783,48,29.926,48Z" fill="#c4c4c4"/>
        </g>
      </g>
      <g id="Group-5" data-name="Group" transform="translate(38.064 6.879)">
        <g id="Group-6" data-name="Group">
          <path id="Vector-3" data-name="Vector" d="M1.712.409A.937.937,0,1,0,.163,1.466a8.281,8.281,0,0,1,.976,1.972A11.506,11.506,0,0,1,.47,12.118a.937.937,0,1,0,1.687.818A13.391,13.391,0,0,0,2.911,2.827,10.153,10.153,0,0,0,1.712.409Z" fill="#c4c4c4"/>
        </g>
      </g>
      <g id="Group-7" data-name="Group" transform="translate(8.106 7.152)">
        <g id="Group-8" data-name="Group">
          <path id="Vector-4" data-name="Vector" d="M5.674,12.484,4.415,8.71.641,7.452a.937.937,0,0,1,0-1.778L4.415,4.415,5.674.641a.937.937,0,0,1,1.778,0L8.71,4.415l3.774,1.258a.937.937,0,0,1,0,1.778L8.71,8.71,7.452,12.484a.937.937,0,0,1-1.778,0Z" fill="#c4c4c4"/>
        </g>
      </g>
    </g>
  </g>
  <text id="Dental.in" transform="translate(56 32)" fill="#c4c4c4" font-size="28" font-family="Poppins-SemiBold, Poppins" font-weight="600"><tspan x="0" y="0">Dental</tspan><tspan y="0" fill="#0b498f">.in</tspan></text>
</svg>
